# xmcd
# 
# Track frame offsets:
#     150
#     22426
#     39048
#     57328
#     72404
#     89327
#     107984
#     124493
#     135763
#     152573
#     168743
#     181030
#     195353
#     213445
#     227127
#     241261
#     268060
#     286076
#     305261
#     325049
# 
# Disc length: 4579
# 
# Revision: 0
# Processed by: cddbd v1.5.2PL0 Copyright (c) Steve Scherf et al.
# Submitted via: fre:ac v1.0.27
# 
DISCID=1611e114
DTITLE=Margaret Peterson Haddix - Torn Disc 3
DYEAR=2011
DGENRE=Audiobook
TTITLE0=Disc 3 - Track 01
TTITLE1=Disc 3 - Track 02
TTITLE2=Disc 3 - Track 03
TTITLE3=Disc 3 - Track 04
TTITLE4=Disc 3 - Track 05
TTITLE5=Disc 3 - Track 06
TTITLE6=Disc 3 - Track 07
TTITLE7=Disc 3 - Track 08
TTITLE8=Disc 3 - Track 09
TTITLE9=Disc 3 - Track 10
TTITLE10=Disc 3 - Track 11
TTITLE11=Disc 3 - Track 12
TTITLE12=Disc 3 - Track 13
TTITLE13=Disc 3 - Track 14
TTITLE14=Disc 3 - Track 15
TTITLE15=Disc 3 - Track 16
TTITLE16=Disc 3 - Track 17
TTITLE17=Disc 3 - Track 18
TTITLE18=Disc 3 - Track 19
TTITLE19=Disc 3 - Track 20
EXTD=
EXTT0=
EXTT1=
EXTT2=
EXTT3=
EXTT4=
EXTT5=
EXTT6=
EXTT7=
EXTT8=
EXTT9=
EXTT10=
EXTT11=
EXTT12=
EXTT13=
EXTT14=
EXTT15=
EXTT16=
EXTT17=
EXTT18=
EXTT19=
PLAYORDER=
